<?xml version="1.0" encoding="utf-8"?>
<!-- Generator: Adobe Illustrator 27.5.0, SVG Export Plug-In . SVG Version: 6.00 Build 0)  -->
<svg version="1.1" id="Capa_1" xmlns="http://www.w3.org/2000/svg" xmlns:xlink="http://www.w3.org/1999/xlink" x="0px" y="0px"
	 viewBox="0 0 358.249 419.204" style="enable-background:new 0 0 358.249 419.204;" xml:space="preserve">
<g>
	<rect x="0" y="-0.001" style="fill:#DADADA;" width="358.249" height="419.204"/>
	<polygon style="fill:#BEBEBE;" points="0,419.203 358.248,419.203 280.217,376.596 76.803,376.596 	"/>
	
		<ellipse transform="matrix(0.7071 -0.7071 0.7071 0.7071 -94.2396 183.5795)" style="fill:#FFFFFF;" cx="174.48" cy="205.547" rx="151.743" ry="151.743"/>
	<g>
		<rect x="76.803" y="259.016" style="fill:#D48256;" width="203.414" height="117.58"/>
		<rect x="76.803" y="259.016" style="fill:#BB744C;" width="203.414" height="15.105"/>
		<rect x="70.991" y="248.657" style="fill:#D48256;" width="215.038" height="14.927"/>
		<polygon style="fill:#D79C5D;" points="286.028,248.657 70.991,248.657 116.7,201.541 243.437,201.541 		"/>
		<polygon style="fill:#B05F3E;" points="149.124,220.536 142.268,227.602 214.751,227.602 208.363,220.536 		"/>
		<polygon style="fill:#7D402E;" points="151.453,223.24 210.819,223.24 208.363,220.536 149.124,220.536 142.268,227.602 
			147.22,227.602 		"/>
		<g>
			<path style="fill:#7D402E;" d="M181.289,353.654v3.97c0,1.176-0.617,1.764-1.852,1.764h-1.765c-1.235,0-1.853-0.588-1.853-1.764
				v-3.97c-2.202,0-5.177-0.441-8.924-1.323c-4.403-1.059-6.603-2.176-6.603-3.353c0-0.177,0.059-0.441,0.178-0.793l2.589-7.412
				c0.237-0.47,0.504-0.706,0.802-0.706c-0.118,0,1.295,0.618,4.24,1.852c2.943,1.235,5.517,1.972,7.719,2.206v-17.292
				c-5.059-2.235-8.323-3.939-9.793-5.116c-3.824-3-5.734-6.999-5.734-11.999c0-5.646,2.087-10.058,6.264-13.233
				c2.999-2.294,6.087-3.499,9.263-3.618v-4.322c0-1.176,0.618-1.766,1.853-1.766h1.765c1.235,0,1.852,0.59,1.852,1.766v4.322
				c2.235,0.177,4.852,0.677,7.852,1.499c3.999,1.121,5.999,2.325,5.999,3.619c0,0.236-0.088,0.558-0.264,0.97l-2.735,5.998
				c-0.236,0.473-0.501,0.706-0.794,0.706c0.116,0-1.148-0.587-3.794-1.766c-2.647-1.175-4.735-1.763-6.265-1.763v16.321
				c4.94,2.413,8.235,4.323,9.882,5.734c3.705,3.235,5.557,7.295,5.557,12.175c0,5.47-1.852,9.764-5.557,12.882
				C188.523,351.537,185.229,353.006,181.289,353.654z M176.437,316.511v-14.38c-4,1.002-5.999,3.295-5.999,6.881
				C170.438,312.188,172.437,314.69,176.437,316.511z M180.671,328.863v15.263c3.94-1.059,5.911-3.47,5.911-7.234
				C186.583,333.598,184.611,330.922,180.671,328.863z"/>
		</g>
		<g>
			<path style="fill:#D79C5D;" d="M184.023,350.608v3.97c0,1.176-0.618,1.765-1.853,1.765h-1.764c-1.235,0-1.853-0.588-1.853-1.765
				v-3.97c-2.201,0-5.176-0.441-8.925-1.323c-4.402-1.059-6.603-2.177-6.603-3.353c0-0.176,0.06-0.441,0.178-0.793l2.589-7.412
				c0.237-0.469,0.504-0.705,0.802-0.705c-0.117,0,1.294,0.617,4.239,1.853c2.944,1.235,5.519,1.971,7.72,2.205v-17.292
				c-5.06-2.234-8.324-3.939-9.793-5.117c-3.825-3-5.735-6.999-5.735-11.998c0-5.647,2.087-10.058,6.265-13.234
				c2.999-2.294,6.086-3.499,9.263-3.617v-4.323c0-1.176,0.618-1.765,1.853-1.765h1.764c1.235,0,1.853,0.589,1.853,1.765v4.323
				c2.234,0.177,4.852,0.677,7.852,1.5c3.999,1.119,5.998,2.324,5.998,3.618c0,0.236-0.088,0.56-0.263,0.97l-2.736,5.999
				c-0.236,0.471-0.501,0.706-0.794,0.706c0.117,0-1.147-0.588-3.794-1.765c-2.646-1.176-4.734-1.764-6.264-1.764v16.321
				c4.94,2.413,8.234,4.323,9.882,5.734c3.706,3.235,5.558,7.294,5.558,12.175c0,5.47-1.852,9.764-5.558,12.882
				C191.256,348.491,187.962,349.96,184.023,350.608z M179.17,313.464v-14.379c-4,1.001-5.999,3.295-5.999,6.881
				C173.171,309.142,175.17,311.644,179.17,313.464z M183.405,325.816v15.263c3.94-1.059,5.911-3.469,5.911-7.234
				C189.316,330.552,187.345,327.876,183.405,325.816z"/>
		</g>
	</g>
	<g>
		<path style="fill:#C38769;" d="M252.139,214.028c-10.432,6.048-30.637,2.01-30.637,2.01l0.43-17.225l31.293-7.21
			C253.224,191.604,262.575,207.983,252.139,214.028z"/>
		<path style="fill:#C38769;" d="M266.816,197.224c-8.477,7.313-28.321,8.733-28.321,8.733l-1.954-17.118l26.906-11.111
			C263.447,177.727,275.294,189.911,266.816,197.224z"/>
		<path style="fill:#C38769;" d="M274.77,183.607c-8.478,7.313-28.321,8.733-28.321,8.733l-1.955-17.117l26.905-11.113
			C271.399,164.11,283.247,176.293,274.77,183.607z"/>
		<path style="fill:#F8B894;" d="M286.136,114.551l22.846,23.735l-50.064,30.162l-26.948,17.824c0,0-1.214,15.124,5.014,19.184
			c10.292,6.716,0.148,23.299-13.005,18.259c-13.15-5.039-34.273-21.618-31.754-32.9c2.519-11.288,23.944-42.567,29.729-47.818
			C232.508,133.415,286.136,114.551,286.136,114.551z"/>
		<path style="fill:#DCA585;" d="M294.845,141.427c-11.334,0.467-22.608,1.08-33.887,2.342c-1.965,0.221-3.336-0.753-4.029-2.104
			c-6.388,2.593-11.513,6.822-15.855,12.704c-5.369,7.278-10.288,14.348-16.831,20.651c-5.131,4.939-11.994,10.707-12.429,18.389
			c-0.041,0.708-0.27,5.028,0.98,5.201c1.934,0.27,3.955-0.649,5.67-1.446c4.45-2.062,8.438-4.928,12.811-7.127
			c0.204-0.103,0.404-0.183,0.602-0.248c-0.021-2.091,0.092-3.517,0.092-3.517l26.948-17.824l45.144-27.2
			c-0.61-0.072-1.22-0.153-1.829-0.232C299.714,141.149,297.23,141.329,294.845,141.427z"/>
		<polygon style="fill:#C38769;" points="229.58,157.93 243.403,178.264 247.312,176.126 		"/>
		<polygon style="fill:#C38769;" points="198.369,194.387 222.905,196.02 223.628,191.626 		"/>
		<g>
			<path style="fill:#F9B233;" d="M233.318,193.55c7.952,7.621,8.221,20.242,0.6,28.197c-7.62,7.951-20.243,8.221-28.195,0.602
				c-7.953-7.621-8.221-20.247-0.601-28.199C212.743,186.199,225.365,185.93,233.318,193.55z"/>
			<path style="fill:#FFCE32;" d="M234.29,219.254c-7.621,7.951-20.245,8.222-28.195,0.601c-4.533-4.344-6.564-10.31-6.067-16.113
				c-1.404,6.541,0.511,13.639,5.695,18.605c7.952,7.62,20.575,7.349,28.195-0.602c3.278-3.421,5.092-7.706,5.466-12.085
				C238.635,213.154,236.941,216.489,234.29,219.254z"/>
			<path style="fill:#FFCE32;" d="M230.906,216.634c-5.762,6.012-15.305,6.216-21.317,0.455c-3.426-3.284-4.962-7.794-4.586-12.182
				c-1.062,4.947,0.386,10.311,4.305,14.064c6.013,5.761,15.556,5.559,21.315-0.453c2.48-2.585,3.849-5.824,4.134-9.133
				C234.191,212.023,232.91,214.543,230.906,216.634z"/>
			<path style="fill:none;stroke:#F39433;stroke-width:1.1815;stroke-miterlimit:10;" d="M230.17,196.835
				c6.139,5.88,6.346,15.627,0.464,21.765c-5.882,6.136-15.626,6.343-21.764,0.462c-6.138-5.882-6.344-15.626-0.464-21.766
				C214.29,191.158,224.031,190.951,230.17,196.835z"/>
			<path style="fill:#F39433;" d="M207.632,195.852c0.204,0.193,0.21,0.517,0.016,0.72l0,0c-0.195,0.201-0.518,0.211-0.721,0.016
				l-1.177-1.128c-0.202-0.195-0.208-0.521-0.014-0.721l0,0c0.194-0.204,0.518-0.211,0.72-0.017L207.632,195.852z"/>
			<path style="fill:#F39433;" d="M233.462,220.601c0.201,0.195,0.21,0.517,0.016,0.722l0,0c-0.196,0.205-0.518,0.21-0.721,0.017
				l-1.177-1.129c-0.204-0.193-0.21-0.517-0.015-0.722l0,0c0.193-0.203,0.517-0.208,0.72-0.014L233.462,220.601z"/>
			<path style="fill:#F39433;" d="M231.787,196.058c-0.196,0.201-0.518,0.21-0.721,0.016l0,0c-0.204-0.198-0.21-0.518-0.016-0.721
				l1.128-1.179c0.194-0.204,0.517-0.209,0.721-0.016l0,0c0.202,0.194,0.209,0.518,0.014,0.721L231.787,196.058z"/>
			<path style="fill:#F39433;" d="M207.033,221.887c-0.194,0.203-0.518,0.21-0.72,0.014l0,0c-0.204-0.195-0.21-0.517-0.016-0.719
				l1.128-1.179c0.196-0.205,0.517-0.21,0.72-0.015l0,0c0.204,0.194,0.211,0.516,0.015,0.72L207.033,221.887z"/>
			<path style="fill:#F39433;" d="M219.753,190.951c0.004,0.282-0.22,0.515-0.5,0.521l0,0c-0.281,0.006-0.514-0.219-0.52-0.499
				l-0.035-1.63c-0.007-0.281,0.218-0.513,0.498-0.52l0,0c0.281-0.006,0.514,0.216,0.521,0.498L219.753,190.951z"/>
			<path style="fill:#F39433;" d="M220.513,226.717c0.008,0.283-0.216,0.515-0.499,0.521l0,0c-0.28,0.005-0.514-0.216-0.52-0.499
				l-0.035-1.628c-0.006-0.284,0.218-0.516,0.498-0.523l0,0c0.282-0.005,0.517,0.218,0.521,0.499L220.513,226.717z"/>
			<path style="fill:#F39433;" d="M236.684,208.176c-0.28,0.008-0.514-0.219-0.521-0.498l0,0c-0.005-0.281,0.219-0.513,0.501-0.521
				l1.63-0.035c0.28-0.005,0.514,0.217,0.521,0.499l0,0c0.006,0.279-0.218,0.514-0.499,0.521L236.684,208.176z"/>
			<path style="fill:#F39433;" d="M200.919,208.938c-0.283,0.006-0.516-0.215-0.522-0.499l0,0c-0.005-0.284,0.218-0.514,0.499-0.521
				l1.63-0.035c0.281-0.005,0.514,0.216,0.521,0.499l0,0c0.006,0.283-0.218,0.513-0.499,0.52L200.919,208.938z"/>
			<path style="fill:#F39433;" d="M213.079,192.246c0.117,0.258,0,0.558-0.257,0.674l0,0c-0.255,0.116-0.558,0-0.672-0.258
				l-0.67-1.485c-0.114-0.257,0-0.559,0.257-0.674l0,0c0.257-0.117,0.559,0,0.674,0.254L213.079,192.246z"/>
			<path style="fill:#F39433;" d="M227.73,224.884c0.115,0.258,0,0.558-0.257,0.674l0,0c-0.257,0.115-0.558,0-0.674-0.258
				l-0.667-1.487c-0.114-0.256,0-0.555,0.257-0.672l0,0c0.257-0.118,0.558-0.004,0.674,0.253L227.73,224.884z"/>
			<path style="fill:#F39433;" d="M235.389,201.502c-0.258,0.116-0.56,0.003-0.673-0.253l0,0c-0.116-0.257-0.001-0.561,0.255-0.674
				l1.49-0.668c0.255-0.115,0.558-0.003,0.673,0.254l0,0c0.115,0.257,0,0.558-0.256,0.674L235.389,201.502z"/>
			<path style="fill:#F39433;" d="M202.753,216.153c-0.256,0.117-0.558,0-0.674-0.256l0,0c-0.114-0.256,0-0.558,0.256-0.671
				l1.489-0.67c0.257-0.113,0.558,0,0.672,0.256l0,0c0.115,0.257,0.001,0.559-0.256,0.674L202.753,216.153z"/>
			<path style="fill:#F39433;" d="M226.152,192.256c-0.101,0.26-0.395,0.395-0.658,0.294l0,0c-0.264-0.101-0.396-0.395-0.297-0.658
				l0.58-1.524c0.101-0.264,0.396-0.395,0.659-0.294l0,0c0.263,0.101,0.395,0.392,0.294,0.658L226.152,192.256z"/>
			<path style="fill:#F39433;" d="M213.434,225.693c-0.101,0.263-0.395,0.395-0.658,0.294l0,0c-0.264-0.1-0.395-0.395-0.294-0.66
				l0.58-1.522c0.1-0.263,0.394-0.396,0.656-0.296l0,0c0.264,0.101,0.397,0.397,0.297,0.66L213.434,225.693z"/>
			<path style="fill:#F39433;" d="M235.381,214.578c-0.263-0.101-0.395-0.395-0.296-0.66l0,0c0.101-0.261,0.395-0.394,0.659-0.294
				l1.522,0.581c0.264,0.099,0.397,0.391,0.297,0.654l0,0c-0.101,0.264-0.395,0.395-0.659,0.294L235.381,214.578z"/>
			<path style="fill:#F39433;" d="M201.944,201.856c-0.262-0.1-0.395-0.394-0.294-0.657l0,0c0.098-0.264,0.393-0.396,0.656-0.296
				l1.523,0.58c0.265,0.102,0.396,0.396,0.296,0.659l0,0c-0.1,0.263-0.393,0.396-0.656,0.295L201.944,201.856z"/>
			<path style="fill:#F39433;" d="M216.212,191.29c0.064,0.276-0.106,0.548-0.381,0.614l0,0c-0.272,0.063-0.547-0.107-0.611-0.382
				l-0.374-1.586c-0.061-0.273,0.107-0.549,0.382-0.611l0,0c0.274-0.066,0.548,0.104,0.613,0.379L216.212,191.29z"/>
			<path style="fill:#F39433;" d="M224.364,226.125c0.064,0.272-0.106,0.548-0.379,0.612l0,0c-0.276,0.063-0.549-0.108-0.612-0.38
				l-0.372-1.59c-0.065-0.272,0.105-0.545,0.379-0.61l0,0c0.274-0.064,0.549,0.106,0.613,0.38L224.364,226.125z"/>
			<path style="fill:#F39433;" d="M236.344,204.637c-0.274,0.062-0.549-0.106-0.612-0.379l0,0c-0.063-0.276,0.106-0.552,0.38-0.615
				l1.587-0.369c0.275-0.067,0.549,0.103,0.613,0.378l0,0c0.065,0.273-0.106,0.546-0.379,0.612L236.344,204.637z"/>
			<path style="fill:#F39433;" d="M201.511,212.787c-0.274,0.068-0.548-0.106-0.613-0.378l0,0c-0.063-0.277,0.106-0.548,0.381-0.612
				l1.588-0.373c0.274-0.063,0.548,0.106,0.613,0.38l0,0c0.064,0.276-0.107,0.549-0.381,0.614L201.511,212.787z"/>
			<path style="fill:#F39433;" d="M229.042,193.795c-0.149,0.237-0.463,0.313-0.702,0.163l0,0c-0.238-0.148-0.312-0.461-0.165-0.702
				l0.863-1.386c0.146-0.237,0.46-0.309,0.7-0.162l0,0c0.24,0.147,0.312,0.464,0.165,0.703L229.042,193.795z"/>
			<path style="fill:#F39433;" d="M210.175,224.188c-0.149,0.241-0.462,0.315-0.701,0.165l0,0c-0.241-0.146-0.313-0.462-0.164-0.7
				l0.859-1.385c0.149-0.24,0.462-0.315,0.703-0.165l0,0c0.24,0.148,0.312,0.46,0.164,0.7L210.175,224.188z"/>
			<path style="fill:#F39433;" d="M233.841,217.467c-0.24-0.148-0.312-0.464-0.163-0.702l0,0c0.148-0.237,0.463-0.313,0.701-0.166
				l1.385,0.862c0.239,0.148,0.314,0.464,0.164,0.702l0,0c-0.149,0.237-0.462,0.314-0.702,0.163L233.841,217.467z"/>
			<path style="fill:#F39433;" d="M203.447,198.599c-0.24-0.146-0.313-0.463-0.163-0.703l0,0c0.147-0.237,0.461-0.312,0.7-0.162
				l1.385,0.859c0.24,0.148,0.313,0.462,0.164,0.703l0,0c-0.148,0.238-0.464,0.313-0.702,0.162L203.447,198.599z"/>
			<path style="fill:#F39433;" d="M209.963,193.933c0.167,0.229,0.116,0.545-0.111,0.711l0,0c-0.228,0.166-0.547,0.116-0.711-0.113
				l-0.961-1.315c-0.166-0.229-0.117-0.546,0.111-0.711l0,0c0.229-0.168,0.547-0.118,0.713,0.112L209.963,193.933z"/>
			<path style="fill:#F39433;" d="M231.031,222.847c0.165,0.225,0.116,0.544-0.111,0.71l0,0c-0.228,0.167-0.547,0.117-0.712-0.111
				l-0.96-1.317c-0.165-0.229-0.116-0.55,0.112-0.712l0,0c0.227-0.165,0.547-0.115,0.713,0.113L231.031,222.847z"/>
			<path style="fill:#F39433;" d="M233.703,198.387c-0.228,0.166-0.545,0.116-0.711-0.11l0,0c-0.167-0.228-0.117-0.545,0.111-0.711
				l1.318-0.962c0.227-0.167,0.546-0.116,0.71,0.113l0,0c0.167,0.229,0.117,0.545-0.11,0.711L233.703,198.387z"/>
			<path style="fill:#F39433;" d="M204.79,219.455c-0.227,0.165-0.545,0.117-0.712-0.11l0,0c-0.166-0.23-0.115-0.548,0.112-0.712
				l1.319-0.963c0.226-0.165,0.546-0.115,0.711,0.115l0,0c0.165,0.229,0.116,0.544-0.112,0.711L204.79,219.455z"/>
			<path style="fill:#F39433;" d="M222.756,191.243c-0.043,0.279-0.304,0.468-0.581,0.427l0,0c-0.279-0.044-0.469-0.307-0.425-0.583
				l0.254-1.611c0.042-0.279,0.304-0.468,0.581-0.427l0,0c0.277,0.044,0.468,0.305,0.425,0.583L222.756,191.243z"/>
			<path style="fill:#F39433;" d="M217.21,226.585c-0.043,0.279-0.306,0.468-0.581,0.424l0,0c-0.279-0.044-0.471-0.304-0.427-0.583
				l0.254-1.608c0.044-0.28,0.304-0.47,0.583-0.426l0,0c0.278,0.044,0.467,0.303,0.423,0.583L217.21,226.585z"/>
			<path style="fill:#F39433;" d="M236.391,211.183c-0.277-0.044-0.467-0.309-0.423-0.583l0,0c0.044-0.28,0.305-0.47,0.583-0.426
				l1.61,0.252c0.277,0.044,0.469,0.305,0.424,0.583l0,0c-0.044,0.279-0.304,0.467-0.582,0.423L236.391,211.183z"/>
			<path style="fill:#F39433;" d="M201.05,205.634c-0.277-0.044-0.468-0.308-0.424-0.583l0,0c0.044-0.278,0.304-0.471,0.582-0.427
				l1.611,0.254c0.278,0.044,0.468,0.304,0.424,0.583l0,0c-0.043,0.279-0.304,0.467-0.582,0.423L201.05,205.634z"/>
			<g>
				<path style="fill:#F39433;" d="M227.896,213.982l0.957,0.919c0.284,0.27,0.284,0.555-0.002,0.855l-0.408,0.426
					c-0.287,0.298-0.57,0.311-0.855,0.037l-0.96-0.918c-0.509,0.534-1.303,1.148-2.383,1.85c-1.274,0.819-2.053,1.091-2.337,0.819
					c-0.041-0.042-0.094-0.118-0.15-0.227l-1.191-2.343c-0.059-0.165-0.054-0.283,0.015-0.353c-0.028,0.027,0.448-0.172,1.43-0.596
					c0.978-0.425,1.752-0.877,2.316-1.354l-4.174-4c-1.709,0.702-2.876,1.098-3.501,1.183c-1.607,0.225-3.015-0.24-4.222-1.393
					c-1.363-1.306-1.945-2.831-1.746-4.576c0.14-1.254,0.564-2.279,1.271-3.072l-1.043-1.001c-0.285-0.271-0.285-0.558,0.001-0.855
					l0.409-0.427c0.285-0.298,0.57-0.31,0.854-0.038l1.044,1.001c0.56-0.499,1.285-1.016,2.177-1.549
					c1.195-0.708,1.949-0.913,2.262-0.611c0.057,0.053,0.113,0.15,0.173,0.285l0.815,2.051c0.06,0.165,0.055,0.284-0.013,0.353
					c0.026-0.028-0.408,0.142-1.304,0.508c-0.897,0.367-1.522,0.738-1.875,1.104l3.941,3.777c1.725-0.634,2.946-0.988,3.669-1.06
					c1.638-0.148,3.046,0.344,4.225,1.476c1.321,1.265,1.93,2.707,1.824,4.322C229.058,211.747,228.65,212.882,227.896,213.982z
					 M217.807,206.558l-3.472-3.325c-0.684,1.197-0.593,2.21,0.274,3.042C215.376,207.007,216.441,207.106,217.807,206.558z
					 M221.769,208.396l3.685,3.53c0.655-1.195,0.53-2.231-0.379-3.101C224.279,208.063,223.175,207.919,221.769,208.396z"/>
			</g>
			<path style="fill:#FCC133;" d="M228.887,213.739c0.733-1.072,1.324-3.23,1.418-4.427c0.146-1.83-1.356-4.155-2.985-5.017
				c-1.488-0.793-3.686-1.036-5.275-0.645c-2.227,0.552-3.166,0.84-4.227-1.191c-0.493-0.946-0.356-0.73,0.495-1.219
				c0.86-0.492,1.374-0.536,0.941-1.429c-0.741-1.52-1.026-3.063-2.152-2.941c-1.076,0.116-3.579,1.91-4.322,1.574
				c-0.63-0.282-2.059-1.69-2.059-1.69s9.902-5.967,17.556,0.461c5.476,4.598,7.692,13.386,2.598,18.407
				C230.393,215.206,228.887,213.739,228.887,213.739z"/>
			<path style="fill:#FCC133;" d="M226.636,216.173l1.724,1.651c0,0-10.294,6.252-17.651-1.107
				c-8.491-8.137-2.07-17.795-2.07-17.795l2.392,2.295c0,0-3.325,3.62,0.458,7.551c4.584,4.762,7.697,1.319,8.347,1.38
				c0.65,0.057,2.82,2.065,2.83,2.571c0.012,0.502-3,1.898-3.196,2.534c-0.196,0.636,1.634,3.803,2.375,3.805
				C222.583,219.062,226.636,216.173,226.636,216.173z"/>
		</g>
		<path style="fill:#F8B894;" d="M256.611,139.038l52.37-0.753c0,0-19.398,12.178-22.134,17.334
			c-4.215,7.94-1.858,13.36-14.603,23.124c-11.769,9.017-29.145,20.32-43.753,27.238c-11.421,5.408-22.168-3.517-13.47-12.547
			c6.854-7.116,16.155-14.156,21.915-19.247C242.695,169.097,241.713,149.353,256.611,139.038z"/>
		<polygon style="fill:#017CA8;" points="358.248,65.664 358.248,121.304 300.565,149.822 274.379,113.705 		"/>
	</g>
	<g>
		<path style="fill:#C38769;" d="M225.908,126.992c-8.87,8.168-29.47,8.614-29.47,8.614l-3.32-16.907l28.98-13.831
			C222.098,104.867,234.782,118.825,225.908,126.992z"/>
		<path style="fill:#C38769;" d="M236.587,107.402c-6.687,8.979-25.749,14.673-25.749,14.673l-5.624-16.285l23.851-16.688
			C229.065,89.103,243.275,98.423,236.587,107.402z"/>
		<path style="fill:#C38769;" d="M241.394,92.384c-6.687,8.979-25.749,14.673-25.749,14.673l-5.624-16.285l23.851-16.689
			C233.871,74.083,248.081,83.404,241.394,92.384z"/>
		<path style="fill:#F8B894;" d="M237.497,22.507l27.453,18.209l-42.32,40.312l-22.436,23.249c0,0,2.098,15.027,9.059,17.637
			c11.505,4.32,5.203,22.712-8.73,20.648c-13.932-2.065-38.149-13.661-38.141-25.222c0.008-11.565,14.131-46.749,18.638-53.131
			C189.243,52.564,237.497,22.507,237.497,22.507z"/>
		<path style="fill:#DCA585;" d="M251.834,46.851c-10.963,2.917-21.834,5.963-32.57,9.643c-1.872,0.643-3.421-0.011-4.391-1.179
			c-5.672,3.919-9.758,9.16-12.719,15.844c-3.661,8.27-6.927,16.238-11.946,23.812c-3.937,5.937-9.383,13.056-8.141,20.649
			c0.114,0.701,0.828,4.967,2.086,4.864c1.947-0.157,3.719-1.492,5.222-2.642c3.895-2.979,7.166-6.642,10.957-9.739
			c0.177-0.145,0.355-0.266,0.534-0.373c-0.474-2.036-0.673-3.453-0.673-3.453l22.436-23.249l38.162-36.352
			c-0.611,0.062-1.224,0.114-1.836,0.17C256.525,45.522,254.14,46.238,251.834,46.851z"/>
		<polygon style="fill:#C38769;" points="191.708,77.129 209.616,93.978 212.967,91.043 		"/>
		<polygon style="fill:#C38769;" points="169.157,119.493 193.462,115.761 193.213,111.314 		"/>
		<g>
			<path style="fill:#F9B233;" d="M203.091,111.089c9.416,5.712,12.418,17.975,6.706,27.392c-5.712,9.417-17.975,12.42-27.392,6.709
				c-9.418-5.712-12.42-17.978-6.709-27.395C181.409,108.38,193.673,105.377,203.091,111.089z"/>
			<path style="fill:#FFCE32;" d="M209.619,135.968c-5.712,9.417-17.977,12.42-27.393,6.71c-5.366-3.257-8.644-8.639-9.419-14.411
				c0.049,6.688,3.459,13.2,9.599,16.923c9.417,5.711,21.68,2.708,27.392-6.709c2.458-4.05,3.298-8.626,2.712-12.982
				C212.537,129.07,211.607,132.693,209.619,135.968z"/>
			<path style="fill:#FFCE32;" d="M205.747,134.145c-4.319,7.119-13.59,9.391-20.71,5.072c-4.057-2.462-6.536-6.53-7.121-10.896
				c0.037,5.059,2.615,9.98,7.257,12.794c7.119,4.319,16.39,2.048,20.708-5.07c1.859-3.063,2.493-6.522,2.053-9.814
				C207.952,128.931,207.249,131.669,205.747,134.145z"/>
			<path style="fill:none;stroke:#F39433;stroke-width:1.1815;stroke-miterlimit:10;" d="M200.732,114.979
				c7.269,4.407,9.587,13.876,5.177,21.144c-4.409,7.269-13.877,9.585-21.145,5.177c-7.269-4.41-9.586-13.874-5.179-21.146
				C183.996,112.885,193.461,110.568,200.732,114.979z"/>
			<path style="fill:#F39433;" d="M178.516,118.912c0.241,0.146,0.317,0.459,0.172,0.7l0,0c-0.147,0.239-0.46,0.318-0.701,0.172
				l-1.394-0.846c-0.24-0.146-0.317-0.462-0.17-0.701l0,0c0.145-0.241,0.459-0.317,0.699-0.171L178.516,118.912z"/>
			<path style="fill:#F39433;" d="M209.104,137.463c0.239,0.146,0.316,0.458,0.171,0.701l0,0c-0.147,0.241-0.46,0.316-0.7,0.172
				l-1.394-0.846c-0.241-0.146-0.318-0.46-0.172-0.702l0,0c0.145-0.24,0.46-0.315,0.7-0.171L209.104,137.463z"/>
			<path style="fill:#F39433;" d="M202.14,113.869c-0.147,0.239-0.459,0.317-0.7,0.172l0,0c-0.242-0.148-0.318-0.459-0.172-0.7
				l0.845-1.396c0.146-0.241,0.459-0.316,0.701-0.171l0,0c0.239,0.146,0.317,0.458,0.17,0.7L202.14,113.869z"/>
			<path style="fill:#F39433;" d="M183.584,144.456c-0.145,0.241-0.459,0.318-0.699,0.171l0,0c-0.242-0.147-0.317-0.459-0.171-0.7
				l0.845-1.396c0.148-0.241,0.46-0.317,0.699-0.17l0,0c0.241,0.144,0.319,0.459,0.172,0.7L183.584,144.456z"/>
			<path style="fill:#F39433;" d="M189.285,111.497c0.065,0.275-0.103,0.549-0.376,0.617l0,0c-0.272,0.066-0.549-0.103-0.617-0.375
				l-0.386-1.582c-0.069-0.274,0.101-0.549,0.374-0.616l0,0c0.272-0.067,0.548,0.1,0.616,0.374L189.285,111.497z"/>
			<path style="fill:#F39433;" d="M197.791,146.244c0.069,0.274-0.1,0.55-0.374,0.616l0,0c-0.271,0.067-0.548-0.099-0.616-0.372
				l-0.388-1.583c-0.067-0.275,0.101-0.55,0.373-0.618l0,0c0.274-0.066,0.551,0.102,0.619,0.375L197.791,146.244z"/>
			<path style="fill:#F39433;" d="M209.552,124.635c-0.272,0.068-0.549-0.102-0.616-0.373l0,0c-0.067-0.273,0.101-0.549,0.375-0.617
				l1.584-0.387c0.272-0.067,0.549,0.1,0.616,0.374l0,0c0.067,0.271-0.102,0.548-0.374,0.616L209.552,124.635z"/>
			<path style="fill:#F39433;" d="M174.804,133.143c-0.274,0.067-0.55-0.099-0.617-0.373l0,0c-0.065-0.275,0.101-0.549,0.376-0.617
				l1.583-0.388c0.273-0.066,0.549,0.1,0.617,0.374l0,0c0.066,0.274-0.102,0.548-0.374,0.616L174.804,133.143z"/>
			<path style="fill:#F39433;" d="M183.051,114.21c0.17,0.226,0.121,0.545-0.104,0.714l0,0c-0.224,0.168-0.544,0.12-0.712-0.106
				l-0.976-1.305c-0.168-0.226-0.122-0.545,0.104-0.713l0,0c0.226-0.17,0.545-0.122,0.713,0.102L183.051,114.21z"/>
			<path style="fill:#F39433;" d="M204.438,142.888c0.169,0.226,0.122,0.543-0.104,0.714l0,0c-0.226,0.167-0.544,0.121-0.714-0.105
				l-0.975-1.306c-0.167-0.225-0.121-0.544,0.105-0.714l0,0c0.227-0.168,0.545-0.124,0.713,0.103L204.438,142.888z"/>
			<path style="fill:#F39433;" d="M206.838,118.402c-0.227,0.169-0.545,0.124-0.712-0.102l0,0c-0.169-0.226-0.122-0.548,0.103-0.714
				l1.308-0.975c0.224-0.169,0.543-0.124,0.713,0.102l0,0c0.168,0.226,0.122,0.545-0.104,0.713L206.838,118.402z"/>
			<path style="fill:#F39433;" d="M178.161,139.789c-0.225,0.169-0.544,0.121-0.713-0.104l0,0c-0.167-0.227-0.122-0.545,0.103-0.711
				l1.308-0.979c0.227-0.166,0.544-0.121,0.712,0.104l0,0c0.169,0.228,0.123,0.546-0.103,0.715L178.161,139.789z"/>
			<path style="fill:#F39433;" d="M195.814,111.381c-0.042,0.275-0.3,0.47-0.579,0.43l0,0c-0.278-0.041-0.471-0.3-0.432-0.578
				l0.234-1.613c0.041-0.279,0.301-0.471,0.579-0.431l0,0c0.279,0.041,0.471,0.298,0.431,0.579L195.814,111.381z"/>
			<path style="fill:#F39433;" d="M190.658,146.781c-0.042,0.279-0.3,0.471-0.579,0.43l0,0c-0.28-0.04-0.471-0.3-0.431-0.58
				l0.236-1.612c0.04-0.279,0.299-0.473,0.577-0.43l0,0c0.278,0.04,0.473,0.3,0.432,0.578L190.658,146.781z"/>
			<path style="fill:#F39433;" d="M209.669,131.165c-0.279-0.04-0.471-0.298-0.432-0.579l0,0c0.041-0.278,0.3-0.471,0.579-0.43
				l1.612,0.236c0.28,0.04,0.473,0.297,0.433,0.574l0,0c-0.042,0.279-0.3,0.471-0.579,0.43L209.669,131.165z"/>
			<path style="fill:#F39433;" d="M174.268,126.009c-0.277-0.041-0.471-0.3-0.43-0.579l0,0c0.039-0.278,0.298-0.471,0.577-0.43
				l1.612,0.235c0.281,0.041,0.473,0.3,0.433,0.578l0,0c-0.041,0.278-0.298,0.471-0.577,0.43L174.268,126.009z"/>
			<path style="fill:#F39433;" d="M185.901,112.596c0.123,0.255,0.015,0.559-0.238,0.683l0,0c-0.252,0.12-0.557,0.014-0.679-0.241
				l-0.708-1.467c-0.121-0.253-0.015-0.559,0.239-0.679l0,0c0.253-0.124,0.557-0.018,0.68,0.237L185.901,112.596z"/>
			<path style="fill:#F39433;" d="M201.421,144.831c0.122,0.251,0.016,0.558-0.238,0.679l0,0c-0.254,0.123-0.558,0.015-0.68-0.238
				l-0.709-1.471c-0.123-0.251-0.015-0.554,0.238-0.679l0,0c0.254-0.121,0.559-0.016,0.681,0.237L201.421,144.831z"/>
			<path style="fill:#F39433;" d="M208.451,121.254c-0.254,0.12-0.56,0.016-0.679-0.237l0,0c-0.123-0.256-0.017-0.562,0.236-0.683
				l1.469-0.705c0.254-0.124,0.558-0.018,0.681,0.237l0,0c0.123,0.252,0.014,0.555-0.238,0.679L208.451,121.254z"/>
			<path style="fill:#F39433;" d="M176.219,136.772c-0.254,0.124-0.559,0.015-0.681-0.237l0,0c-0.121-0.256-0.016-0.559,0.239-0.68
				l1.469-0.708c0.254-0.12,0.559-0.015,0.68,0.237l0,0c0.123,0.256,0.016,0.559-0.238,0.682L176.219,136.772z"/>
			<path style="fill:#F39433;" d="M198.97,112.256c-0.094,0.264-0.383,0.406-0.65,0.312l0,0c-0.266-0.093-0.405-0.382-0.314-0.649
				l0.541-1.541c0.092-0.265,0.383-0.402,0.648-0.311l0,0c0.266,0.091,0.405,0.385,0.313,0.65L198.97,112.256z"/>
			<path style="fill:#F39433;" d="M187.151,146.02c-0.093,0.267-0.383,0.406-0.648,0.312l0,0c-0.268-0.091-0.407-0.384-0.313-0.649
				l0.537-1.538c0.093-0.266,0.383-0.407,0.65-0.312l0,0c0.267,0.091,0.405,0.38,0.313,0.646L187.151,146.02z"/>
			<path style="fill:#F39433;" d="M208.793,134.321c-0.266-0.091-0.405-0.385-0.312-0.649l0,0c0.093-0.264,0.384-0.406,0.649-0.314
				l1.54,0.54c0.265,0.092,0.407,0.385,0.313,0.649l0,0c-0.094,0.265-0.383,0.407-0.65,0.312L208.793,134.321z"/>
			<path style="fill:#F39433;" d="M175.028,122.503c-0.266-0.091-0.407-0.384-0.312-0.65l0,0c0.092-0.264,0.382-0.405,0.649-0.311
				l1.539,0.538c0.267,0.093,0.405,0.382,0.313,0.649l0,0c-0.093,0.266-0.384,0.408-0.649,0.313L175.028,122.503z"/>
			<path style="fill:#F39433;" d="M180.376,116.532c0.212,0.188,0.231,0.507,0.046,0.719l0,0c-0.186,0.211-0.509,0.231-0.719,0.044
				l-1.223-1.077c-0.212-0.188-0.232-0.508-0.046-0.719l0,0c0.187-0.212,0.509-0.233,0.72-0.045L180.376,116.532z"/>
			<path style="fill:#F39433;" d="M207.218,140.182c0.211,0.185,0.231,0.507,0.046,0.719l0,0c-0.187,0.212-0.509,0.232-0.719,0.045
				l-1.224-1.077c-0.211-0.188-0.232-0.511-0.046-0.719l0,0c0.186-0.211,0.509-0.232,0.721-0.044L207.218,140.182z"/>
			<path style="fill:#F39433;" d="M204.517,115.726c-0.186,0.212-0.508,0.232-0.719,0.048l0,0c-0.212-0.187-0.232-0.507-0.046-0.719
				l1.078-1.225c0.186-0.211,0.508-0.232,0.718-0.044l0,0c0.212,0.188,0.232,0.507,0.046,0.718L204.517,115.726z"/>
			<path style="fill:#F39433;" d="M180.866,142.568c-0.186,0.211-0.506,0.233-0.718,0.048l0,0c-0.212-0.189-0.232-0.51-0.045-0.719
				l1.078-1.227c0.185-0.21,0.508-0.231,0.72-0.043l0,0c0.21,0.188,0.232,0.507,0.044,0.718L180.866,142.568z"/>
			<path style="fill:#F39433;" d="M192.279,111.129c0.019,0.282-0.195,0.523-0.475,0.542l0,0c-0.281,0.018-0.524-0.197-0.542-0.476
				l-0.102-1.628c-0.019-0.282,0.195-0.523,0.475-0.543l0,0c0.28-0.017,0.523,0.196,0.541,0.477L192.279,111.129z"/>
			<path style="fill:#F39433;" d="M194.538,146.833c0.019,0.282-0.197,0.523-0.476,0.54l0,0c-0.281,0.018-0.525-0.195-0.543-0.476
				l-0.101-1.625c-0.017-0.282,0.196-0.525,0.477-0.542l0,0c0.28-0.017,0.522,0.195,0.54,0.477L194.538,146.833z"/>
			<path style="fill:#F39433;" d="M209.918,127.632c-0.28,0.018-0.523-0.198-0.54-0.476l0,0c-0.018-0.283,0.194-0.525,0.477-0.543
				l1.626-0.103c0.281-0.016,0.524,0.197,0.542,0.478l0,0c0.017,0.282-0.196,0.521-0.478,0.54L209.918,127.632z"/>
			<path style="fill:#F39433;" d="M174.216,129.89c-0.281,0.017-0.524-0.199-0.541-0.478l0,0c-0.018-0.281,0.195-0.525,0.476-0.542
				l1.628-0.102c0.28-0.018,0.523,0.196,0.54,0.478l0,0c0.019,0.281-0.195,0.521-0.476,0.538L174.216,129.89z"/>
			<g>
				<path style="fill:#F39433;" d="M202.233,132.21l1.134,0.688c0.337,0.204,0.398,0.482,0.183,0.836l-0.305,0.505
					c-0.215,0.351-0.489,0.426-0.826,0.221l-1.136-0.689c-0.381,0.631-1.023,1.403-1.925,2.323
					c-1.066,1.075-1.768,1.511-2.104,1.306c-0.05-0.031-0.117-0.092-0.196-0.188l-1.671-2.027c-0.093-0.148-0.114-0.266-0.062-0.348
					c-0.021,0.033,0.4-0.266,1.267-0.891c0.861-0.629,1.52-1.238,1.967-1.826l-4.943-2.998c-1.516,1.056-2.569,1.695-3.161,1.913
					c-1.521,0.569-2.995,0.422-4.424-0.442c-1.615-0.98-2.513-2.34-2.698-4.087c-0.135-1.254,0.057-2.347,0.574-3.275l-1.235-0.749
					c-0.338-0.204-0.4-0.482-0.185-0.836l0.307-0.505c0.213-0.352,0.489-0.426,0.825-0.222l1.236,0.749
					c0.438-0.607,1.034-1.271,1.789-1.983c1.014-0.952,1.705-1.314,2.076-1.088c0.068,0.04,0.144,0.122,0.231,0.24l1.241,1.825
					c0.094,0.149,0.116,0.267,0.064,0.348c0.02-0.033-0.368,0.227-1.163,0.779c-0.795,0.552-1.325,1.05-1.589,1.484l4.667,2.832
					c1.544-0.992,2.661-1.604,3.351-1.831c1.566-0.5,3.049-0.325,4.445,0.524c1.563,0.946,2.47,2.222,2.718,3.821
					C202.882,129.776,202.73,130.972,202.233,132.21z M190.773,127.154l-4.111-2.493c-0.407,1.317-0.098,2.287,0.928,2.909
					C188.497,128.121,189.559,127.984,190.773,127.154z M195.039,128.089l4.363,2.644c0.381-1.307,0.034-2.291-1.044-2.944
					C197.417,127.218,196.309,127.316,195.039,128.089z"/>
			</g>
			<path style="fill:#FCC133;" d="M203.148,131.759c0.482-1.208,0.591-3.442,0.423-4.631c-0.255-1.816-2.225-3.76-4.003-4.249
				c-1.626-0.45-3.823-0.21-5.29,0.516c-2.054,1.023-2.908,1.508-4.385-0.245c-0.687-0.817-0.506-0.636,0.218-1.298
				c0.734-0.667,1.226-0.821,0.608-1.599c-1.054-1.323-1.667-2.767-2.739-2.403c-1.025,0.347-3.079,2.641-3.877,2.475
				c-0.677-0.139-2.378-1.203-2.378-1.203s8.371-7.975,17.238-3.361c6.344,3.299,10.415,11.396,6.532,17.403
				C204.937,132.863,203.148,131.759,203.148,131.759z"/>
			<path style="fill:#FCC133;" d="M201.479,134.622l2.041,1.238c0,0-8.691,8.337-17.47,2.753c-10.055-6.1-5.884-16.921-5.884-16.921
				l2.833,1.721c0,0-2.459,4.255,2.087,7.272c5.508,3.653,7.799-0.383,8.447-0.466c0.647-0.086,3.201,1.405,3.32,1.896
				c0.121,0.488-2.516,2.504-2.57,3.168c-0.053,0.664,2.421,3.357,3.145,3.199C198.15,138.321,201.479,134.622,201.479,134.622z"/>
		</g>
		<path style="fill:#F8B894;" d="M213.992,52.82l50.958-12.104c0,0-16.29,16.099-17.841,21.726
			c-2.392,8.666,1.086,13.445-9.235,25.743c-9.531,11.357-24.039,26.164-36.795,36.087c-9.975,7.758-22.403,1.38-15.874-9.324
			c5.146-8.434,12.697-17.325,17.214-23.546C206.935,85.183,201.689,66.123,213.992,52.82z"/>
		<polygon style="fill:#259DAB;" points="248.868,-0.001 313.736,-0.001 259.239,53.805 225.836,24.233 		"/>
	</g>
	<g>
		<path style="fill:#C38769;" d="M108.362,194.015c10.432,6.048,30.637,2.01,30.637,2.01l-0.43-17.225l-31.292-7.21
			C107.277,171.591,97.927,187.969,108.362,194.015z"/>
		<path style="fill:#C38769;" d="M93.685,177.211c8.477,7.313,28.321,8.733,28.321,8.733l1.954-17.118l-26.905-11.111
			C97.054,157.715,85.208,169.898,93.685,177.211z"/>
		<path style="fill:#C38769;" d="M85.733,163.595c8.477,7.313,28.321,8.733,28.321,8.733l1.955-17.117l-26.906-11.114
			C89.102,144.097,77.254,156.281,85.733,163.595z"/>
		<path style="fill:#F8B894;" d="M74.365,94.538L51.52,118.273l50.063,30.163l26.948,17.824c0,0,1.215,15.124-5.014,19.183
			c-10.292,6.715-0.147,23.299,13.006,18.259c13.15-5.04,34.273-21.616,31.755-32.9c-2.52-11.288-23.944-42.566-29.729-47.817
			C127.994,113.402,74.365,94.538,74.365,94.538z"/>
		<path style="fill:#DCA585;" d="M65.655,121.414c11.334,0.466,22.608,1.08,33.888,2.342c1.965,0.221,3.336-0.754,4.029-2.104
			c6.388,2.594,11.513,6.822,15.855,12.704c5.369,7.278,10.287,14.347,16.831,20.651c5.132,4.939,11.994,10.707,12.43,18.389
			c0.042,0.708,0.27,5.028-0.98,5.201c-1.934,0.269-3.955-0.65-5.671-1.445c-4.45-2.063-8.438-4.928-12.811-7.128
			c-0.204-0.104-0.404-0.182-0.602-0.248c0.021-2.09-0.092-3.516-0.092-3.516l-26.948-17.824l-45.143-27.2
			c0.609-0.072,1.22-0.154,1.829-0.232C60.788,121.137,63.271,121.316,65.655,121.414z"/>
		<polygon style="fill:#C38769;" points="130.921,137.917 117.099,158.251 113.189,156.113 		"/>
		<polygon style="fill:#C38769;" points="162.131,174.374 137.596,176.008 136.874,171.613 		"/>
		<g>
			<path style="fill:#F9B233;" d="M122.909,196.37c-4.658-9.98-0.344-21.845,9.638-26.504c9.979-4.658,21.846-0.344,26.504,9.635
				c4.658,9.982,0.342,21.851-9.639,26.508C139.434,210.663,127.567,206.349,122.909,196.37z"/>
			<path style="fill:#FFCE32;" d="M131.299,172.055c9.981-4.658,21.848-0.343,26.506,9.637c2.653,5.688,2.39,11.985-0.172,17.215
				c3.674-5.589,4.455-12.898,1.418-19.406c-4.659-9.979-16.525-14.293-26.504-9.635c-4.293,2.002-7.534,5.342-9.466,9.289
				C125.042,176.17,127.828,173.674,131.299,172.055z"/>
			<path style="fill:#FFCE32;" d="M133.506,175.721c7.546-3.521,16.517-0.26,20.038,7.286c2.008,4.299,1.808,9.06-0.13,13.016
				c2.78-4.229,3.369-9.752,1.072-14.669c-3.522-7.546-12.491-10.807-20.035-7.286c-3.247,1.514-5.696,4.038-7.158,7.021
				C128.776,178.831,130.882,176.946,133.506,175.721z"/>
			<path style="fill:none;stroke:#F39433;stroke-width:1.1815;stroke-miterlimit:10;" d="M127.032,194.445
				c-3.598-7.702-0.266-16.863,7.437-20.458c7.705-3.595,16.865-0.263,20.459,7.44c3.595,7.703,0.264,16.86-7.438,20.462
				C139.785,205.481,130.628,202.152,127.032,194.445z"/>
			<path style="fill:#F39433;" d="M147.689,203.515c-0.119-0.256-0.01-0.559,0.246-0.68l0,0c0.254-0.115,0.558-0.007,0.678,0.247
				l0.689,1.478c0.118,0.254,0.006,0.561-0.248,0.678l0,0c-0.255,0.119-0.558,0.007-0.676-0.247L147.689,203.515z"/>
			<path style="fill:#F39433;" d="M132.557,171.098c-0.118-0.255-0.008-0.557,0.247-0.68l0,0c0.257-0.118,0.558-0.006,0.678,0.248
				l0.69,1.477c0.119,0.256,0.008,0.56-0.247,0.679l0,0c-0.254,0.12-0.558,0.007-0.677-0.246L132.557,171.098z"/>
			<path style="fill:#F39433;" d="M125.244,194.585c0.254-0.116,0.558-0.008,0.677,0.246l0,0c0.119,0.259,0.01,0.56-0.246,0.68
				l-1.479,0.691c-0.255,0.118-0.558,0.007-0.677-0.247l0,0c-0.119-0.255-0.009-0.559,0.247-0.678L125.244,194.585z"/>
			<path style="fill:#F39433;" d="M157.663,179.458c0.255-0.121,0.559-0.01,0.677,0.245l0,0c0.119,0.257,0.007,0.559-0.247,0.679
				l-1.479,0.69c-0.256,0.119-0.559,0.008-0.676-0.248l0,0c-0.12-0.253-0.01-0.557,0.246-0.675L157.663,179.458z"/>
			<path style="fill:#F39433;" d="M134.617,203.698c0.098-0.263,0.39-0.4,0.654-0.305l0,0c0.263,0.097,0.399,0.391,0.304,0.654
				l-0.557,1.532c-0.096,0.266-0.388,0.402-0.653,0.305l0,0c-0.264-0.095-0.401-0.388-0.305-0.652L134.617,203.698z"/>
			<path style="fill:#F39433;" d="M146.842,170.079c0.095-0.267,0.388-0.402,0.653-0.305l0,0c0.263,0.095,0.401,0.388,0.304,0.652
				l-0.557,1.531c-0.096,0.266-0.389,0.403-0.653,0.308l0,0c-0.265-0.098-0.401-0.391-0.307-0.655L146.842,170.079z"/>
			<path style="fill:#F39433;" d="M125.06,181.517c0.264,0.094,0.399,0.389,0.305,0.651l0,0c-0.096,0.264-0.39,0.4-0.655,0.305
				l-1.532-0.557c-0.264-0.097-0.401-0.388-0.305-0.653l0,0c0.095-0.263,0.389-0.4,0.653-0.305L125.06,181.517z"/>
			<path style="fill:#F39433;" d="M158.68,193.742c0.265,0.096,0.402,0.386,0.306,0.651l0,0c-0.099,0.265-0.389,0.4-0.654,0.304
				l-1.532-0.555c-0.265-0.098-0.401-0.389-0.305-0.655l0,0c0.097-0.265,0.389-0.399,0.653-0.304L158.68,193.742z"/>
			<path style="fill:#F39433;" d="M141.306,204.904c-0.015-0.28,0.202-0.519,0.484-0.533l0,0c0.28-0.017,0.52,0.201,0.533,0.482
				l0.086,1.627c0.015,0.281-0.202,0.52-0.483,0.536l0,0c-0.281,0.017-0.52-0.201-0.536-0.48L141.306,204.904z"/>
			<path style="fill:#F39433;" d="M139.451,169.178c-0.014-0.282,0.201-0.519,0.483-0.536l0,0c0.281-0.015,0.52,0.202,0.535,0.483
				l0.085,1.628c0.013,0.279-0.201,0.518-0.484,0.535l0,0c-0.281,0.015-0.521-0.199-0.536-0.482L139.451,169.178z"/>
			<path style="fill:#F39433;" d="M123.854,188.207c0.282-0.016,0.522,0.199,0.536,0.48l0,0c0.015,0.282-0.202,0.523-0.481,0.536
				l-1.63,0.083c-0.279,0.017-0.521-0.198-0.536-0.48l0,0c-0.014-0.28,0.202-0.52,0.483-0.535L123.854,188.207z"/>
			<path style="fill:#F39433;" d="M159.58,186.351c0.282-0.017,0.521,0.202,0.537,0.482l0,0c0.014,0.281-0.202,0.521-0.48,0.534
				l-1.633,0.088c-0.28,0.012-0.519-0.202-0.533-0.483l0,0c-0.014-0.282,0.201-0.521,0.482-0.536L159.58,186.351z"/>
			<path style="fill:#F39433;" d="M129.122,200.167c0.187-0.205,0.51-0.225,0.719-0.036l0,0c0.21,0.189,0.226,0.511,0.04,0.719
				l-1.092,1.212c-0.189,0.21-0.512,0.227-0.721,0.038l0,0c-0.209-0.19-0.227-0.51-0.038-0.72L129.122,200.167z"/>
			<path style="fill:#F39433;" d="M153.072,173.594c0.189-0.208,0.511-0.225,0.719-0.037l0,0c0.21,0.19,0.226,0.512,0.037,0.722
				l-1.093,1.209c-0.188,0.21-0.51,0.226-0.718,0.038l0,0c-0.209-0.188-0.226-0.513-0.038-0.721L153.072,173.594z"/>
			<path style="fill:#F39433;" d="M128.59,176.02c0.209,0.188,0.226,0.51,0.038,0.721l0,0c-0.189,0.209-0.512,0.227-0.72,0.037
				l-1.21-1.092c-0.21-0.188-0.229-0.509-0.04-0.717l0,0c0.188-0.209,0.511-0.225,0.721-0.037L128.59,176.02z"/>
			<path style="fill:#F39433;" d="M155.164,199.972c0.208,0.188,0.226,0.51,0.036,0.719l0,0c-0.187,0.209-0.509,0.227-0.719,0.039
				l-1.211-1.091c-0.21-0.19-0.227-0.513-0.038-0.722l0,0c0.189-0.21,0.509-0.227,0.719-0.037L155.164,199.972z"/>
			<path style="fill:#F39433;" d="M138.04,204.663c0.04-0.28,0.298-0.472,0.577-0.435l0,0c0.276,0.04,0.471,0.297,0.432,0.577
				l-0.226,1.614c-0.04,0.277-0.297,0.473-0.577,0.431l0,0c-0.279-0.036-0.474-0.294-0.435-0.573L138.04,204.663z"/>
			<path style="fill:#F39433;" d="M143.039,169.239c0.038-0.278,0.296-0.473,0.574-0.434l0,0c0.28,0.04,0.473,0.299,0.434,0.577
				l-0.228,1.616c-0.038,0.277-0.295,0.469-0.575,0.432l0,0c-0.278-0.04-0.473-0.297-0.434-0.576L143.039,169.239z"/>
			<path style="fill:#F39433;" d="M124.098,184.939c0.278,0.04,0.473,0.297,0.433,0.575l0,0c-0.041,0.28-0.298,0.476-0.576,0.436
				l-1.614-0.23c-0.28-0.038-0.474-0.296-0.435-0.575l0,0c0.039-0.278,0.296-0.47,0.575-0.433L124.098,184.939z"/>
			<path style="fill:#F39433;" d="M159.52,189.936c0.28,0.04,0.474,0.299,0.435,0.577l0,0c-0.041,0.28-0.297,0.472-0.576,0.433
				l-1.615-0.227c-0.278-0.042-0.473-0.299-0.435-0.577l0,0c0.04-0.279,0.299-0.473,0.578-0.436L159.52,189.936z"/>
			<path style="fill:#F39433;" d="M126.984,197.688c0.225-0.167,0.545-0.124,0.713,0.103l0,0c0.169,0.223,0.125,0.542-0.1,0.714
				l-1.305,0.979c-0.223,0.168-0.542,0.122-0.713-0.103l0,0c-0.17-0.223-0.122-0.544,0.102-0.712L126.984,197.688z"/>
			<path style="fill:#F39433;" d="M155.566,176.174c0.226-0.17,0.543-0.124,0.711,0.101l0,0c0.172,0.224,0.125,0.546-0.1,0.714
				l-1.302,0.98c-0.225,0.169-0.544,0.124-0.714-0.102l0,0c-0.17-0.224-0.123-0.541,0.1-0.711L155.566,176.174z"/>
			<path style="fill:#F39433;" d="M131.071,173.884c0.17,0.223,0.123,0.544-0.102,0.713l0,0c-0.224,0.168-0.544,0.124-0.713-0.099
				l-0.98-1.306c-0.169-0.223-0.124-0.544,0.101-0.712l0,0c0.224-0.169,0.544-0.126,0.713,0.101L131.071,173.884z"/>
			<path style="fill:#F39433;" d="M152.584,202.464c0.171,0.225,0.124,0.546-0.102,0.713l0,0c-0.224,0.17-0.543,0.128-0.712-0.101
				l-0.981-1.299c-0.17-0.226-0.124-0.544,0.101-0.716l0,0c0.224-0.168,0.545-0.125,0.712,0.102L152.584,202.464z"/>
			<path style="fill:#F39433;" d="M144.821,204.46c-0.073-0.274,0.088-0.55,0.361-0.623l0,0c0.271-0.071,0.552,0.089,0.622,0.361
				l0.419,1.575c0.072,0.274-0.088,0.55-0.36,0.623l0,0c-0.273,0.074-0.552-0.089-0.624-0.363L144.821,204.46z"/>
			<path style="fill:#F39433;" d="M135.636,169.884c-0.073-0.27,0.089-0.551,0.362-0.624l0,0c0.272-0.072,0.552,0.09,0.623,0.363
				l0.419,1.575c0.072,0.273-0.091,0.554-0.362,0.624l0,0c-0.272,0.073-0.552-0.09-0.624-0.363L135.636,169.884z"/>
			<path style="fill:#F39433;" d="M124.299,191.721c0.272-0.072,0.55,0.089,0.623,0.359l0,0c0.074,0.273-0.087,0.551-0.36,0.624
				l-1.577,0.42c-0.272,0.074-0.552-0.09-0.622-0.361l0,0c-0.073-0.274,0.089-0.551,0.36-0.625L124.299,191.721z"/>
			<path style="fill:#F39433;" d="M158.874,182.536c0.272-0.073,0.55,0.088,0.624,0.359l0,0c0.071,0.274-0.091,0.554-0.362,0.624
				l-1.578,0.421c-0.27,0.072-0.551-0.091-0.622-0.366l0,0c-0.07-0.272,0.089-0.549,0.362-0.621L158.874,182.536z"/>
			<path style="fill:#F39433;" d="M131.922,202.342c0.141-0.245,0.453-0.327,0.697-0.188l0,0c0.242,0.141,0.326,0.455,0.185,0.696
				l-0.819,1.41c-0.141,0.245-0.454,0.326-0.697,0.189l0,0c-0.242-0.143-0.326-0.454-0.185-0.698L131.922,202.342z"/>
			<path style="fill:#F39433;" d="M149.875,171.396c0.142-0.244,0.454-0.326,0.695-0.184l0,0c0.245,0.141,0.328,0.452,0.187,0.697
				l-0.818,1.407c-0.143,0.244-0.455,0.329-0.698,0.187l0,0c-0.244-0.141-0.326-0.452-0.184-0.696L149.875,171.396z"/>
			<path style="fill:#F39433;" d="M126.42,178.82c0.243,0.141,0.324,0.457,0.184,0.695l0,0c-0.143,0.245-0.454,0.33-0.698,0.188
				l-1.409-0.819c-0.243-0.14-0.327-0.453-0.186-0.697l0,0c0.143-0.243,0.453-0.325,0.697-0.184L126.42,178.82z"/>
			<path style="fill:#F39433;" d="M157.363,196.773c0.242,0.142,0.326,0.457,0.185,0.697l0,0c-0.142,0.243-0.454,0.329-0.698,0.189
				l-1.41-0.82c-0.244-0.143-0.326-0.454-0.185-0.697l0,0c0.141-0.245,0.453-0.325,0.696-0.185L157.363,196.773z"/>
			<g>
				<path style="fill:#F39433;" d="M135.353,179.282l-0.561-1.202c-0.167-0.357-0.063-0.622,0.313-0.797l0.534-0.251
					c0.375-0.173,0.645-0.083,0.81,0.274l0.563,1.203c0.667-0.313,1.63-0.598,2.892-0.861c1.483-0.302,2.309-0.275,2.475,0.083
					c0.023,0.053,0.045,0.141,0.058,0.264l0.264,2.615c-0.005,0.175-0.053,0.284-0.143,0.323c0.036-0.015-0.479-0.001-1.547,0.038
					c-1.066,0.044-1.952,0.186-2.65,0.426l2.445,5.239c1.847-0.037,3.079,0.017,3.691,0.165c1.581,0.371,2.726,1.312,3.433,2.824
					c0.798,1.711,0.79,3.343-0.027,4.898c-0.584,1.119-1.35,1.919-2.296,2.405l0.611,1.309c0.168,0.358,0.064,0.623-0.31,0.796
					l-0.536,0.25c-0.374,0.174-0.644,0.083-0.81-0.274l-0.613-1.31c-0.701,0.263-1.565,0.482-2.589,0.656
					c-1.371,0.229-2.147,0.146-2.33-0.247c-0.034-0.071-0.053-0.183-0.059-0.329l-0.019-2.207c0.004-0.176,0.052-0.286,0.139-0.325
					c-0.035,0.017,0.432,0.016,1.4-0.001c0.968-0.018,1.685-0.137,2.147-0.353l-2.308-4.947c-1.837-0.031-3.104-0.144-3.804-0.338
					c-1.58-0.454-2.715-1.423-3.404-2.904c-0.775-1.657-0.821-3.22-0.139-4.688C133.462,180.945,134.253,180.035,135.353,179.282z
					 M142.075,189.852l2.033,4.357c1.071-0.871,1.353-1.848,0.845-2.935C144.504,190.313,143.546,189.836,142.075,189.852z
					 M139.046,186.705l-2.159-4.622c-1.042,0.876-1.301,1.887-0.767,3.028C136.585,186.107,137.563,186.641,139.046,186.705z"/>
			</g>
			<path style="fill:#FCC133;" d="M134.342,179.15c-1.072,0.735-2.403,2.534-2.924,3.617c-0.797,1.65-0.238,4.362,0.969,5.755
				c1.102,1.278,3.062,2.3,4.685,2.508c2.275,0.292,3.255,0.363,3.51,2.641c0.118,1.063,0.067,0.81-0.903,0.958
				c-0.979,0.148-1.475,0.002-1.393,0.993c0.142,1.684-0.15,3.226,0.943,3.52c1.046,0.282,4.027-0.485,4.598,0.097
				c0.487,0.49,1.31,2.319,1.31,2.319s-11.391,1.982-16.202-6.78c-3.441-6.266-2.331-15.261,4.234-18.099
				C133.469,177.236,134.342,179.15,134.342,179.15z"/>
			<path style="fill:#FCC133;" d="M137.319,177.695l-1.009-2.163c0,0,11.857-2.106,16.055,7.415
				c4.975,10.656-4.504,17.337-4.504,17.337l-1.401-3.003c0,0,4.409-2.172,2.305-7.206c-2.552-6.097-6.699-4.012-7.284-4.305
				c-0.585-0.288-1.881-2.946-1.708-3.42c0.17-0.473,3.484-0.685,3.896-1.207c0.413-0.523-0.148-4.137-0.837-4.406
				C142.143,176.467,137.319,177.695,137.319,177.695z"/>
		</g>
		<path style="fill:#F8B894;" d="M103.891,119.026l-52.371-0.753c0,0,19.396,12.178,22.133,17.334
			c4.216,7.94,1.858,13.36,14.604,23.124c11.77,9.017,29.146,20.32,43.752,27.237c11.42,5.408,22.168-3.517,13.471-12.546
			c-6.854-7.116-16.156-14.156-21.915-19.247C117.806,149.085,118.787,129.34,103.891,119.026z"/>
		<polygon style="fill:#293559;" points="0,48.513 0,108.194 59.936,129.81 86.123,93.692 		"/>
	</g>
</g>
</svg>
